<svg viewBox="0 0 64 64" xmlns="http://www.w3.org/2000/svg" id="Office-Building--Streamline-Emoji" height="64" width="64">
  <desc>
    Office Building Streamline Emoji: https://streamlinehq.com
  </desc>
  <path d="M4.88 60.199999999999996a27.119999999999997 2.466666666666667 0 1 0 54.239999999999995 0 27.119999999999997 2.466666666666667 0 1 0 -54.239999999999995 0Z" fill="#45413c" opacity=".15" stroke-width="1"></path>
  <path d="M8.986666666666666 45.33333333333333h46.02666666666667a1.64 1.64 0 0 1 1.64 1.64v11.506666666666668a0.8266666666666667 0.8266666666666667 0 0 1 -0.8266666666666667 0.8266666666666667H8.173333333333332a0.8266666666666667 0.8266666666666667 0 0 1 -0.8266666666666667 -0.8266666666666667v-11.479999999999999A1.64 1.64 0 0 1 8.986666666666666 45.33333333333333Z" fill="#ffffff" stroke="#45413c" stroke-linecap="round" stroke-linejoin="round" stroke-width="1"></path>
  <path d="M9.813333333333333 7.56h44.373333333333335v37.8H9.813333333333333z" fill="#ffffff" stroke-width="1"></path>
  <path d="M9.813333333333333 7.56h44.373333333333335v3.493333333333333H9.813333333333333z" fill="#e0e0e0" stroke-width="1"></path>
  <path d="M9.813333333333333 7.56h44.373333333333335v37.8H9.813333333333333z" fill="none" stroke="#45413c" stroke-linecap="round" stroke-linejoin="round" stroke-width="1"></path>
  <path d="m8.173333333333332 3.453333333333333 47.666666666666664 0 0 4.1066666666666665 -47.666666666666664 0Z" fill="#87898c" stroke-width="1"></path>
  <path d="M54.18666666666667 3.453333333333333H9.813333333333333a1.64 1.64 0 0 0 -1.64 1.64v0.8266666666666667a1.5733333333333333 1.5733333333333333 0 0 0 0.12 0.6133333333333333 1.64 1.64 0 0 1 1.5199999999999998 -1.0266666666666666h44.373333333333335a1.64 1.64 0 0 1 1.5199999999999998 1.0266666666666666 1.5733333333333333 1.5733333333333333 0 0 0 0.12 -0.6133333333333333v-0.8266666666666667a1.64 1.64 0 0 0 -1.64 -1.64Z" fill="#bdbec0" stroke-width="1"></path>
  <path d="m8.173333333333332 3.453333333333333 47.666666666666664 0 0 4.1066666666666665 -47.666666666666664 0Z" fill="none" stroke="#45413c" stroke-linecap="round" stroke-linejoin="round" stroke-width="1"></path>
  <path d="M25.426666666666666 48.653333333333336h13.146666666666665v10.68h-13.146666666666665z" fill="#64ffda" stroke-width="1"></path>
  <path d="m28 59.33333333333333 6.32 0 4.253333333333333 -10.68 -6.32 0L28 59.33333333333333z" fill="#4acfff" stroke-width="1"></path>
  <path d="M25.426666666666666 48.653333333333336h13.146666666666665v10.68h-13.146666666666665z" fill="none" stroke="#45413c" stroke-linecap="round" stroke-linejoin="round" stroke-width="1"></path>
  <path d="M13.919999999999998 49.46666666666667h4.933333333333334v5.746666666666666h-4.933333333333334z" fill="#64ffda" stroke-width="1"></path>
  <path d="m15.64 55.22666666666667 3.2133333333333334 0 0 -5.76 -0.9199999999999999 0 -2.293333333333333 5.76z" fill="#4acfff" stroke-width="1"></path>
  <path d="M14.746666666666666 35.50666666666666h4.933333333333334v5.746666666666666h-4.933333333333334z" fill="#64ffda" stroke-width="1"></path>
  <path d="m16.453333333333333 41.25333333333333 3.2133333333333334 0 0 -5.746666666666666 -0.9199999999999999 0 -2.293333333333333 5.746666666666666z" fill="#4acfff" stroke-width="1"></path>
  <path d="M44.33333333333333 35.50666666666666h4.933333333333334v5.746666666666666h-4.933333333333334z" fill="#64ffda" stroke-width="1"></path>
  <path d="m46.04 41.25333333333333 3.2133333333333334 0 0 -5.746666666666666 -0.9199999999999999 0 -2.293333333333333 5.746666666666666z" fill="#4acfff" stroke-width="1"></path>
  <path d="M34.46666666666667 35.50666666666666h4.933333333333334v5.746666666666666h-4.933333333333334z" fill="#64ffda" stroke-width="1"></path>
  <path d="m36.18666666666667 41.25333333333333 3.2133333333333334 0 0 -5.746666666666666 -0.9333333333333332 0 -2.28 5.746666666666666z" fill="#4acfff" stroke-width="1"></path>
  <path d="M24.599999999999998 35.50666666666666h4.933333333333334v5.746666666666666h-4.933333333333334z" fill="#64ffda" stroke-width="1"></path>
  <path d="m26.319999999999997 41.25333333333333 3.2133333333333334 0 0 -5.746666666666666 -0.9199999999999999 0 -2.293333333333333 5.746666666666666z" fill="#4acfff" stroke-width="1"></path>
  <path d="M14.746666666666666 24h4.933333333333334v5.746666666666666h-4.933333333333334z" fill="#64ffda" stroke-width="1"></path>
  <path d="m16.453333333333333 29.746666666666663 3.2133333333333334 0 0 -5.746666666666666 -0.9199999999999999 0 -2.293333333333333 5.746666666666666z" fill="#4acfff" stroke-width="1"></path>
  <path d="M44.33333333333333 24h4.933333333333334v5.746666666666666h-4.933333333333334z" fill="#64ffda" stroke-width="1"></path>
  <path d="m46.04 29.746666666666663 3.2133333333333334 0 0 -5.746666666666666 -0.9199999999999999 0 -2.293333333333333 5.746666666666666z" fill="#4acfff" stroke-width="1"></path>
  <path d="M34.46666666666667 24h4.933333333333334v5.746666666666666h-4.933333333333334z" fill="#64ffda" stroke-width="1"></path>
  <path d="m36.18666666666667 29.746666666666663 3.2133333333333334 0 0 -5.746666666666666 -0.9333333333333332 0 -2.28 5.746666666666666z" fill="#4acfff" stroke-width="1"></path>
  <path d="M24.599999999999998 24h4.933333333333334v5.746666666666666h-4.933333333333334z" fill="#64ffda" stroke-width="1"></path>
  <path d="m26.319999999999997 29.746666666666663 3.2133333333333334 0 0 -5.746666666666666 -0.9199999999999999 0 -2.293333333333333 5.746666666666666z" fill="#4acfff" stroke-width="1"></path>
  <path d="M14.746666666666666 12.493333333333332h4.933333333333334v5.746666666666666h-4.933333333333334z" fill="#64ffda" stroke-width="1"></path>
  <path d="m16.453333333333333 18.24 3.2133333333333334 0 0 -5.746666666666666 -0.9199999999999999 0 -2.293333333333333 5.746666666666666z" fill="#4acfff" stroke-width="1"></path>
  <path d="M44.33333333333333 12.493333333333332h4.933333333333334v5.746666666666666h-4.933333333333334z" fill="#64ffda" stroke-width="1"></path>
  <path d="m46.04 18.24 3.2133333333333334 0 0 -5.746666666666666 -0.9199999999999999 0 -2.293333333333333 5.746666666666666z" fill="#4acfff" stroke-width="1"></path>
  <path d="M34.46666666666667 12.493333333333332h4.933333333333334v5.746666666666666h-4.933333333333334z" fill="#64ffda" stroke-width="1"></path>
  <path d="m36.18666666666667 18.24 3.2133333333333334 0 0 -5.746666666666666 -0.9333333333333332 0 -2.28 5.746666666666666z" fill="#4acfff" stroke-width="1"></path>
  <path d="M24.599999999999998 12.493333333333332h4.933333333333334v5.746666666666666h-4.933333333333334z" fill="#64ffda" stroke-width="1"></path>
  <path d="m26.319999999999997 18.24 3.2133333333333334 0 0 -5.746666666666666 -0.9199999999999999 0 -2.293333333333333 5.746666666666666z" fill="#4acfff" stroke-width="1"></path>
  <path d="M14.746666666666666 35.50666666666666h4.933333333333334v5.746666666666666h-4.933333333333334z" fill="none" stroke="#45413c" stroke-linecap="round" stroke-linejoin="round" stroke-width="1"></path>
  <path d="M44.33333333333333 35.50666666666666h4.933333333333334v5.746666666666666h-4.933333333333334z" fill="none" stroke="#45413c" stroke-linecap="round" stroke-linejoin="round" stroke-width="1"></path>
  <path d="M34.46666666666667 35.50666666666666h4.933333333333334v5.746666666666666h-4.933333333333334z" fill="none" stroke="#45413c" stroke-linecap="round" stroke-linejoin="round" stroke-width="1"></path>
  <path d="M24.599999999999998 35.50666666666666h4.933333333333334v5.746666666666666h-4.933333333333334z" fill="none" stroke="#45413c" stroke-linecap="round" stroke-linejoin="round" stroke-width="1"></path>
  <path d="M14.746666666666666 24h4.933333333333334v5.746666666666666h-4.933333333333334z" fill="none" stroke="#45413c" stroke-linecap="round" stroke-linejoin="round" stroke-width="1"></path>
  <path d="M44.33333333333333 24h4.933333333333334v5.746666666666666h-4.933333333333334z" fill="none" stroke="#45413c" stroke-linecap="round" stroke-linejoin="round" stroke-width="1"></path>
  <path d="M34.46666666666667 24h4.933333333333334v5.746666666666666h-4.933333333333334z" fill="none" stroke="#45413c" stroke-linecap="round" stroke-linejoin="round" stroke-width="1"></path>
  <path d="M24.599999999999998 24h4.933333333333334v5.746666666666666h-4.933333333333334z" fill="none" stroke="#45413c" stroke-linecap="round" stroke-linejoin="round" stroke-width="1"></path>
  <path d="M14.746666666666666 12.493333333333332h4.933333333333334v5.746666666666666h-4.933333333333334z" fill="none" stroke="#45413c" stroke-linecap="round" stroke-linejoin="round" stroke-width="1"></path>
  <path d="M44.33333333333333 12.493333333333332h4.933333333333334v5.746666666666666h-4.933333333333334z" fill="none" stroke="#45413c" stroke-linecap="round" stroke-linejoin="round" stroke-width="1"></path>
  <path d="M34.46666666666667 12.493333333333332h4.933333333333334v5.746666666666666h-4.933333333333334z" fill="none" stroke="#45413c" stroke-linecap="round" stroke-linejoin="round" stroke-width="1"></path>
  <path d="M24.599999999999998 12.493333333333332h4.933333333333334v5.746666666666666h-4.933333333333334z" fill="none" stroke="#45413c" stroke-linecap="round" stroke-linejoin="round" stroke-width="1"></path>
  <path d="M45.14666666666666 49.46666666666667h4.933333333333334v5.746666666666666h-4.933333333333334z" fill="#64ffda" stroke-width="1"></path>
  <path d="m46.89333333333333 55.22666666666667 3.2266666666666666 0 0 -5.76 -0.9333333333333332 0 -2.293333333333333 5.76z" fill="#4acfff" stroke-width="1"></path>
  <path d="M13.919999999999998 49.46666666666667h4.933333333333334v5.746666666666666h-4.933333333333334z" fill="none" stroke="#45413c" stroke-linecap="round" stroke-linejoin="round" stroke-width="1"></path>
  <path d="M45.14666666666666 49.46666666666667h4.933333333333334v5.746666666666666h-4.933333333333334z" fill="none" stroke="#45413c" stroke-linecap="round" stroke-linejoin="round" stroke-width="1"></path>
  <path d="m32 48.653333333333336 0 10.68" fill="none" stroke="#45413c" stroke-linecap="round" stroke-linejoin="round" stroke-width="1"></path>
  <path d="m23.479999999999997 44.54666666666666 17.05333333333333 0 0 4.1066666666666665 -17.05333333333333 0Z" fill="#87898c" stroke-width="1"></path>
  <path d="M38.879999999999995 44.54666666666666H25.119999999999997a1.64 1.64 0 0 0 -1.64 1.64v0.8133333333333332a1.9333333333333331 1.9333333333333331 0 0 0 0.10666666666666666 0.6266666666666666 1.6666666666666665 1.6666666666666665 0 0 1 1.5333333333333332 -0.96h13.76a1.64 1.64 0 0 1 1.5199999999999998 1.0266666666666666 1.64 1.64 0 0 0 0.12 -0.6266666666666666v-0.8133333333333332a1.64 1.64 0 0 0 -1.64 -1.7066666666666666Z" fill="#bdbec0" stroke-width="1"></path>
  <path d="m23.479999999999997 44.54666666666666 17.05333333333333 0 0 4.1066666666666665 -17.05333333333333 0Z" fill="none" stroke="#45413c" stroke-linecap="round" stroke-linejoin="round" stroke-width="1"></path>
</svg>